<?xml version="1.0" encoding="UTF-8" standalone="no"?>
<!-- Created with Inkscape (http://www.inkscape.org/) -->

<svg
   width="700"
   height="700"
   viewBox="0 0 185.20833 185.20833"
   version="1.1"
   id="svg5"
   inkscape:version="1.2 (dc2aedaf03, 2022-05-15)"
   sodipodi:docname="StatifyLogo.svg"
   inkscape:export-filename="StatifyLogo.png"
   inkscape:export-xdpi="300"
   inkscape:export-ydpi="300"
   xmlns:inkscape="http://www.inkscape.org/namespaces/inkscape"
   xmlns:sodipodi="http://sodipodi.sourceforge.net/DTD/sodipodi-0.dtd"
   xmlns:xlink="http://www.w3.org/1999/xlink"
   xmlns="http://www.w3.org/2000/svg"
   xmlns:svg="http://www.w3.org/2000/svg">
  <sodipodi:namedview
     id="namedview7"
     pagecolor="#ffffff"
     bordercolor="#000000"
     borderopacity="0.25"
     inkscape:showpageshadow="2"
     inkscape:pageopacity="0.0"
     inkscape:pagecheckerboard="0"
     inkscape:deskcolor="#d1d1d1"
     inkscape:document-units="mm"
     showgrid="false"
     inkscape:zoom="1"
     inkscape:cx="317.5"
     inkscape:cy="286.5"
     inkscape:window-width="1920"
     inkscape:window-height="991"
     inkscape:window-x="-9"
     inkscape:window-y="-9"
     inkscape:window-maximized="1"
     inkscape:current-layer="layer1" />
  <defs
     id="defs2">
    <linearGradient
       id="linearGradient19507"
       inkscape:collect="always">
      <stop
         style="stop-color:#6824e5;stop-opacity:1;"
         offset="0.04605884"
         id="stop19477" />
      <stop
         style="stop-color:#531cb9;stop-opacity:1;"
         offset="0.13050316"
         id="stop19479" />
      <stop
         style="stop-color:#411690;stop-opacity:1;"
         offset="0.26527974"
         id="stop19481" />
      <stop
         style="stop-color:#2d0f65;stop-opacity:1;"
         offset="0.34690017"
         id="stop19483" />
      <stop
         style="stop-color:#0e5f2b;stop-opacity:1;"
         offset="0.49338835"
         id="stop19485" />
      <stop
         style="stop-color:#169041;stop-opacity:1;"
         offset="0.64547896"
         id="stop19487" />
      <stop
         style="stop-color:#1db954;stop-opacity:1;"
         offset="0.86019701"
         id="stop19489" />
      <stop
         style="stop-color:#31e870;stop-opacity:1;"
         offset="0.95483387"
         id="stop19491" />
    </linearGradient>
    <linearGradient
       inkscape:collect="always"
       id="linearGradient12320">
      <stop
         style="stop-color:#ed6b25;stop-opacity:1;"
         offset="0"
         id="stop12316" />
      <stop
         style="stop-color:#531cb9;stop-opacity:1;"
         offset="0.10733625"
         id="stop12324" />
      <stop
         style="stop-color:#ed6b25;stop-opacity:1;"
         offset="0.59346831"
         id="stop12326" />
      <stop
         style="stop-color:#1db954;stop-opacity:1;"
         offset="0.92699629"
         id="stop12949" />
      <stop
         style="stop-color:#531cb9;stop-opacity:1;"
         offset="1"
         id="stop12318" />
    </linearGradient>
    <linearGradient
       inkscape:collect="always"
       id="linearGradient12308">
      <stop
         style="stop-color:#531cb9;stop-opacity:1;"
         offset="0"
         id="stop12304" />
      <stop
         style="stop-color:#1db954;stop-opacity:1;"
         offset="0.21252286"
         id="stop12312" />
      <stop
         style="stop-color:#531cb9;stop-opacity:1;"
         offset="0.80658931"
         id="stop12314" />
      <stop
         style="stop-color:#ed6b25;stop-opacity:1;"
         offset="1"
         id="stop12306" />
    </linearGradient>
    <linearGradient
       id="linearGradient12254"
       inkscape:collect="always">
      <stop
         style="stop-color:#c3a5fc;stop-opacity:1;"
         offset="0"
         id="stop12250" />
      <stop
         style="stop-color:#7838ef;stop-opacity:1;"
         offset="0.03557768"
         id="stop12292" />
      <stop
         style="stop-color:#6824e5;stop-opacity:1;"
         offset="0.07115537"
         id="stop12262" />
      <stop
         style="stop-color:#531cb9;stop-opacity:1;"
         offset="0.13822517"
         id="stop12264" />
      <stop
         style="stop-color:#411690;stop-opacity:1;"
         offset="0.19771217"
         id="stop12266" />
      <stop
         style="stop-color:#2d0f65;stop-opacity:1;"
         offset="0.26195809"
         id="stop12268" />
      <stop
         style="stop-color:#0e5f2b;stop-opacity:1;"
         offset="0.3428092"
         id="stop12270" />
      <stop
         style="stop-color:#169041;stop-opacity:1;"
         offset="0.44663724"
         id="stop12272" />
      <stop
         style="stop-color:#1db954;stop-opacity:1;"
         offset="0.58799624"
         id="stop12274" />
      <stop
         style="stop-color:#24e769;stop-opacity:1;"
         offset="0.66718906"
         id="stop12276" />
      <stop
         style="stop-color:#4cfd8a;stop-opacity:1;"
         offset="0.71042466"
         id="stop12278" />
      <stop
         style="stop-color:#b8fed1;stop-opacity:1;"
         offset="0.75241315"
         id="stop12302" />
      <stop
         style="stop-color:#4cfd8a;stop-opacity:1;"
         offset="0.79440153"
         id="stop12298" />
      <stop
         style="stop-color:#24e769;stop-opacity:1;"
         offset="0.83011585"
         id="stop12280" />
      <stop
         style="stop-color:#1db954;stop-opacity:1;"
         offset="0.86630708"
         id="stop12282" />
      <stop
         style="stop-color:#169041;stop-opacity:1;"
         offset="0.92253578"
         id="stop12284" />
      <stop
         style="stop-color:#0e5f2b;stop-opacity:1;"
         offset="1"
         id="stop12252" />
    </linearGradient>
    <linearGradient
       id="linearGradient10287"
       inkscape:swatch="solid">
      <stop
         style="stop-color:#169041;stop-opacity:1;"
         offset="0"
         id="stop10285" />
    </linearGradient>
    <linearGradient
       id="linearGradient799"
       inkscape:swatch="solid">
      <stop
         style="stop-color:#000000;stop-opacity:1;"
         offset="0"
         id="stop797" />
    </linearGradient>
    <linearGradient
       inkscape:collect="always"
       xlink:href="#linearGradient12254"
       id="linearGradient12258"
       x1="27.660378"
       y1="82.163994"
       x2="157.54796"
       y2="119.24017"
       gradientUnits="userSpaceOnUse" />
    <linearGradient
       inkscape:collect="always"
       xlink:href="#linearGradient12308"
       id="linearGradient12310"
       x1="40.644981"
       y1="96.100883"
       x2="144.56387"
       y2="105.16286"
       gradientUnits="userSpaceOnUse" />
    <linearGradient
       inkscape:collect="always"
       xlink:href="#linearGradient12320"
       id="linearGradient12322"
       x1="43.744587"
       y1="92.897095"
       x2="141.95683"
       y2="98.486488"
       gradientUnits="userSpaceOnUse" />
    <linearGradient
       inkscape:collect="always"
       xlink:href="#linearGradient19507"
       id="linearGradient18850"
       x1="46.842606"
       y1="30.091028"
       x2="137.0193"
       y2="30.091028"
       gradientUnits="userSpaceOnUse" />
    <filter
       style="color-interpolation-filters:sRGB;"
       inkscape:label="Drop Shadow"
       id="filter20640"
       x="-0.0319373"
       y="-0.074625451"
       width="1.0771818"
       height="1.1803448">
      <feFlood
         flood-opacity="1"
         flood-color="rgb(0,0,0)"
         result="flood"
         id="feFlood20630" />
      <feComposite
         in="flood"
         in2="SourceGraphic"
         operator="in"
         result="composite1"
         id="feComposite20632" />
      <feGaussianBlur
         in="composite1"
         stdDeviation="1.2"
         result="blur"
         id="feGaussianBlur20634" />
      <feOffset
         dx="1.2"
         dy="1.2"
         result="offset"
         id="feOffset20636" />
      <feComposite
         in="SourceGraphic"
         in2="offset"
         operator="over"
         result="composite2"
         id="feComposite20638" />
    </filter>
    <filter
       style="color-interpolation-filters:sRGB;"
       inkscape:label="Drop Shadow"
       id="filter20776"
       x="-0.095493192"
       y="-0.034099782"
       width="1.1629002"
       height="1.0824078">
      <feFlood
         flood-opacity="0.854902"
         flood-color="rgb(0,0,0)"
         result="flood"
         id="feFlood20766" />
      <feComposite
         in="flood"
         in2="SourceGraphic"
         operator="in"
         result="composite1"
         id="feComposite20768" />
      <feGaussianBlur
         in="composite1"
         stdDeviation="1.2"
         result="blur"
         id="feGaussianBlur20770" />
      <feOffset
         dx="-1.2"
         dy="1.2"
         result="offset"
         id="feOffset20772" />
      <feComposite
         in="SourceGraphic"
         in2="offset"
         operator="over"
         result="composite2"
         id="feComposite20774" />
    </filter>
  </defs>
  <g
     inkscape:label="Layer 1"
     inkscape:groupmode="layer"
     id="layer1">
    <rect
       style="display:inline;fill:#121814;stroke:none;stroke-width:5.29167;stroke-linecap:square;stroke-linejoin:round;stroke-dasharray:none;paint-order:fill markers stroke;stroke-opacity:1;fill-opacity:1;opacity:1"
       id="rect240"
       width="124.59591"
       height="124.59591"
       x="30.306211"
       y="30.306211"
       ry="50.935436" />
    <path
       style="color:#000000;display:inline;fill:#ffffff;stroke-linecap:square;stroke-linejoin:round;-inkscape-stroke:none;paint-order:fill markers stroke"
       d="m 81.380859,28.455078 c -29.27599,0 -52.925781,23.649791 -52.925781,52.925781 v 22.447271 c 0,29.27599 23.649791,52.92578 52.925781,52.92578 h 22.447271 c 29.27599,0 52.92578,-23.64979 52.92578,-52.92578 V 81.380859 c 0,-29.27599 -23.64979,-52.925781 -52.92578,-52.925781 z m 0,5.226563 h 22.447271 c 9.68575,0 19.33112,2.213839 26.83,7.115111 8.07956,5.280801 14.31181,12.268746 17.77055,21.534307 2.1043,5.637172 3.09866,12.700673 3.09866,19.0498 v 22.447271 c 0,7.32104 -1.09588,15.49343 -4.00675,21.59171 -7.61395,15.95124 -24.34479,27.08769 -43.49402,26.9674 L 82.968358,152.25495 C 55.327125,152.0813 33.364237,129.85105 32.954037,101.9099 L 32.652653,81.380859 C 32.450669,67.622495 37.70302,56.07966 46.798912,47.395829 55.201338,39.37405 68.670058,33.681641 81.380859,33.681641 Z"
       id="rect20944"
       sodipodi:nodetypes="ssssssssssssssssssssss" />
    <rect
       style="display:inline;fill:none;stroke:url(#linearGradient12258);stroke-width:5.29167;stroke-linecap:square;stroke-linejoin:round;stroke-dasharray:none;paint-order:fill markers stroke;stroke-opacity:1;fill-opacity:1;opacity:1"
       id="rect20947"
       width="124.59591"
       height="124.59591"
       x="30.306211"
       y="30.306211"
       ry="50.935436" />
    <path
       id="rect18828"
       style="display:none;opacity:1;fill:url(#linearGradient18850);fill-opacity:1;stroke-width:2.64583;paint-order:fill markers stroke"
       d="m 133.55816,32.721588 h 2.05798 c 0.77735,0 1.40316,0.625812 1.40316,1.403165 v 12.668849 c 0,0.777354 -0.62581,1.403166 -1.40316,1.403166 h -2.05798 c -0.77735,0 -1.40316,-0.625812 -1.40316,-1.403166 V 34.124753 c 0,-0.777353 0.62581,-1.403165 1.40316,-1.403165 z m -7.10935,-11.601776 h 2.05798 c 0.77736,0 1.40317,0.625812 1.40317,1.403165 V 43.65849 c 0,0.777353 -0.62581,1.403165 -1.40317,1.403165 h -2.05798 c -0.77735,0 -1.40316,-0.625812 -1.40316,-1.403165 V 22.522977 c 0,-0.777353 0.62581,-1.403165 1.40316,-1.403165 z m -7.10936,4.063435 h 2.05798 c 0.77735,0 1.40316,0.625811 1.40316,1.403165 v 10.816764 c 0,0.777353 -0.62581,1.403165 -1.40316,1.403165 h -2.05798 c -0.77735,0 -1.40316,-0.625812 -1.40316,-1.403165 V 26.586412 c 0,-0.777354 0.62581,-1.403165 1.40316,-1.403165 z m -7.10937,-0.06695 h 2.05798 c 0.77735,0 1.40316,0.625812 1.40316,1.403165 v 8.832388 c 0,0.777354 -0.62581,1.403166 -1.40316,1.403166 h -2.05798 c -0.77735,0 -1.40316,-0.625812 -1.40316,-1.403166 v -8.832388 c 0,-0.777353 0.62581,-1.403165 1.40316,-1.403165 z m -7.10936,-7.839338 h 2.05797 c 0.77735,0 1.40317,0.625811 1.40317,1.403165 v 17.960513 c 0,0.777354 -0.62582,1.403165 -1.40317,1.403165 h -2.05797 c -0.77736,0 -1.40317,-0.625811 -1.40317,-1.403165 V 18.68012 c 0,-0.777354 0.62581,-1.403165 1.40317,-1.403165 z m -7.10937,-6.482292 h 2.05797 c 0.77736,0 1.40317,0.625812 1.40317,1.403166 V 36.64064 c 0,0.777354 -0.62581,1.403165 -1.40317,1.403165 h -2.05797 c -0.777353,0 -1.403165,-0.625811 -1.403165,-1.403165 V 12.197829 c 0,-0.777354 0.625812,-1.403166 1.403165,-1.403166 z m -7.109367,9.524999 h 2.057973 c 0.777353,0 1.403165,0.625812 1.403165,1.403165 v 13.065725 c 0,0.777353 -0.625812,1.403165 -1.403165,1.403165 h -2.057973 c -0.777354,0 -1.403166,-0.625812 -1.403166,-1.403165 V 21.722827 c 0,-0.777353 0.625812,-1.403165 1.403166,-1.403165 z m -7.109368,-3.042707 h 2.057974 c 0.777353,0 1.403165,0.625811 1.403165,1.403165 v 17.960513 c 0,0.777354 -0.625812,1.403165 -1.403165,1.403165 h -2.057974 c -0.777353,0 -1.403165,-0.625811 -1.403165,-1.403165 V 18.68012 c 0,-0.777354 0.625812,-1.403165 1.403165,-1.403165 z m -7.109367,-2.513542 h 2.057973 c 0.777354,0 1.403165,0.625812 1.403165,1.403166 v 19.94489 c 0,0.777353 -0.625811,1.403165 -1.403165,1.403165 h -2.057973 c -0.777354,0 -1.403165,-0.625812 -1.403165,-1.403165 v -19.94489 c 0,-0.777354 0.625811,-1.403166 1.403165,-1.403166 z m -7.109367,10.220588 h 2.057973 c 0.777353,0 1.403165,0.625812 1.403165,1.403166 v 9.361554 c 0,0.777353 -0.625812,1.403165 -1.403165,1.403165 h -2.057973 c -0.777354,0 -1.403166,-0.625812 -1.403166,-1.403165 v -9.361554 c 0,-0.777354 0.625812,-1.403166 1.403166,-1.403166 z m -7.109368,-1.388254 h 2.057973 c 0.777354,0 1.403166,0.625812 1.403166,1.403165 V 38.32922 c 0,0.777354 -0.625812,1.403166 -1.403166,1.403166 h -2.057973 c -0.777353,0 -1.403165,-0.625812 -1.403165,-1.403166 V 24.998912 c 0,-0.777353 0.625812,-1.403165 1.403165,-1.403165 z m -7.109371,-5.121769 h 2.057973 c 0.777354,0 1.403165,0.625812 1.403165,1.403165 V 42.20328 c 0,0.777354 -0.625811,1.403165 -1.403165,1.403165 h -2.057973 c -0.777353,0 -1.403165,-0.625811 -1.403165,-1.403165 V 19.877143 c 0,-0.777353 0.625812,-1.403165 1.403165,-1.403165 z m -7.109371,13.321571 h 2.057973 c 0.777353,0 1.403165,0.625812 1.403165,1.403166 v 14.785512 c 0,0.777353 -0.625812,1.403165 -1.403165,1.403165 h -2.057973 c -0.777354,0 -1.403165,-0.625812 -1.403165,-1.403165 V 33.198715 c 0,-0.777354 0.625811,-1.403166 1.403165,-1.403166 z" />
    <path
       id="path20268"
       style="display:inline;opacity:1;fill:url(#linearGradient18850);fill-opacity:1;stroke-width:2.64583;paint-order:fill markers stroke;filter:url(#filter20640)"
       d="m 133.55816,32.721588 h 2.05798 c 0.77735,0 1.40316,0.625812 1.40316,1.403165 v 12.668849 c 0,0.777354 -0.62581,1.403166 -1.40316,1.403166 h -2.05798 c -0.77735,0 -1.40316,-0.625812 -1.40316,-1.403166 V 34.124753 c 0,-0.777353 0.62581,-1.403165 1.40316,-1.403165 z m -7.10935,-11.601776 h 2.05798 c 0.77736,0 1.40317,0.625812 1.40317,1.403165 V 43.65849 c 0,0.777353 -0.62581,1.403165 -1.40317,1.403165 h -2.05798 c -0.77735,0 -1.40316,-0.625812 -1.40316,-1.403165 V 22.522977 c 0,-0.777353 0.62581,-1.403165 1.40316,-1.403165 z m -7.10936,4.063435 h 2.05798 c 0.77735,0 1.40316,0.625811 1.40316,1.403165 v 10.816764 c 0,0.777353 -0.62581,1.403165 -1.40316,1.403165 h -2.05798 c -0.77735,0 -1.40316,-0.625812 -1.40316,-1.403165 V 26.586412 c 0,-0.777354 0.62581,-1.403165 1.40316,-1.403165 z m -7.10937,-0.06695 h 2.05798 c 0.77735,0 1.40316,0.625812 1.40316,1.403165 v 8.832388 c 0,0.777354 -0.62581,1.403166 -1.40316,1.403166 h -2.05798 c -0.77735,0 -1.40316,-0.625812 -1.40316,-1.403166 v -8.832388 c 0,-0.777353 0.62581,-1.403165 1.40316,-1.403165 z m -7.10936,-7.839338 h 2.05797 c 0.77735,0 1.40317,0.625811 1.40317,1.403165 v 17.960513 c 0,0.777354 -0.62582,1.403165 -1.40317,1.403165 h -2.05797 c -0.77736,0 -1.40317,-0.625811 -1.40317,-1.403165 V 18.68012 c 0,-0.777354 0.62581,-1.403165 1.40317,-1.403165 z m -7.10937,-6.482292 h 2.05797 c 0.77736,0 1.40317,0.625812 1.40317,1.403166 V 36.64064 c 0,0.777354 -0.62581,1.403165 -1.40317,1.403165 h -2.05797 c -0.777353,0 -1.403165,-0.625811 -1.403165,-1.403165 V 12.197829 c 0,-0.777354 0.625812,-1.403166 1.403165,-1.403166 z m -7.109367,9.524999 h 2.057973 c 0.777353,0 1.403165,0.625812 1.403165,1.403165 v 13.065725 c 0,0.777353 -0.625812,1.403165 -1.403165,1.403165 h -2.057973 c -0.777354,0 -1.403166,-0.625812 -1.403166,-1.403165 V 21.722827 c 0,-0.777353 0.625812,-1.403165 1.403166,-1.403165 z m -7.109368,-3.042707 h 2.057974 c 0.777353,0 1.403165,0.625811 1.403165,1.403165 v 17.960513 c 0,0.777354 -0.625812,1.403165 -1.403165,1.403165 h -2.057974 c -0.777353,0 -1.403165,-0.625811 -1.403165,-1.403165 V 18.68012 c 0,-0.777354 0.625812,-1.403165 1.403165,-1.403165 z m -7.109367,-2.513542 h 2.057973 c 0.777354,0 1.403165,0.625812 1.403165,1.403166 v 19.94489 c 0,0.777353 -0.625811,1.403165 -1.403165,1.403165 h -2.057973 c -0.777354,0 -1.403165,-0.625812 -1.403165,-1.403165 v -19.94489 c 0,-0.777354 0.625811,-1.403166 1.403165,-1.403166 z m -7.109367,10.220588 h 2.057973 c 0.777353,0 1.403165,0.625812 1.403165,1.403166 v 9.361554 c 0,0.777353 -0.625812,1.403165 -1.403165,1.403165 h -2.057973 c -0.777354,0 -1.403166,-0.625812 -1.403166,-1.403165 v -9.361554 c 0,-0.777354 0.625812,-1.403166 1.403166,-1.403166 z m -7.109368,-1.388254 h 2.057973 c 0.777354,0 1.403166,0.625812 1.403166,1.403165 V 38.32922 c 0,0.777354 -0.625812,1.403166 -1.403166,1.403166 h -2.057973 c -0.777353,0 -1.403165,-0.625812 -1.403165,-1.403166 V 24.998912 c 0,-0.777353 0.625812,-1.403165 1.403165,-1.403165 z m -7.109371,-5.121769 h 2.057973 c 0.777354,0 1.403165,0.625812 1.403165,1.403165 V 42.20328 c 0,0.777354 -0.625811,1.403165 -1.403165,1.403165 h -2.057973 c -0.777353,0 -1.403165,-0.625811 -1.403165,-1.403165 V 19.877143 c 0,-0.777353 0.625812,-1.403165 1.403165,-1.403165 z m -7.109371,13.321571 h 2.057973 c 0.777353,0 1.403165,0.625812 1.403165,1.403166 v 14.785512 c 0,0.777353 -0.625812,1.403165 -1.403165,1.403165 h -2.057973 c -0.777354,0 -1.403165,-0.625812 -1.403165,-1.403165 V 33.198715 c 0,-0.777354 0.625811,-1.403166 1.403165,-1.403166 z" />
    <g
       id="g20662"
       transform="matrix(0.96483473,0,0,0.96483473,3.2564595,3.2418717)">
      <g
         id="g18572">
        <path
           style="color:#000000;display:inline;fill:none;stroke:url(#linearGradient12310);stroke-width:0.985143;stroke-linecap:square;stroke-linejoin:round;stroke-opacity:1;-inkscape-stroke:none;paint-order:fill markers stroke"
           d="m 41.266862,80.417094 c -0.08505,1.098996 -0.129308,2.209633 -0.129308,3.330953 v 18.298093 c 0,23.42126 18.895547,42.31885 42.316803,42.31885 h 18.298093 c 23.42126,0 42.31885,-18.89759 42.31885,-42.31885 V 83.748047 c 0,-1.121319 -0.0437,-2.231957 -0.1288,-3.330953"
           id="path3347" />
        <path
           style="color:#000000;display:inline;fill:none;stroke:url(#linearGradient12322);stroke-width:0.985143;stroke-linecap:square;stroke-linejoin:round;stroke-opacity:1;-inkscape-stroke:none;paint-order:fill markers stroke"
           d="m 141.32579,80.417094 c 0.0901,1.098158 0.13847,2.208504 0.13847,3.330953 v 18.298093 c 0,22.02234 -17.68947,39.71181 -39.71181,39.71181 H 83.454357 c -22.02233,0 -39.709769,-17.68947 -39.70977,-39.71181 V 83.748047 c 0,-1.122453 0.04885,-2.232792 0.13898,-3.330953"
           id="rect3135" />
      </g>
      <g
         id="g18563"
         transform="matrix(0.91253346,0,0,0.91253346,8.4546165,8.099707)">
        <text
           xml:space="preserve"
           style="font-size:106.45px;line-height:1;font-family:'KG Beneath Your Beautiful Chunk';-inkscape-font-specification:'KG Beneath Your Beautiful Chunk';text-align:center;text-anchor:middle;display:none;opacity:1;fill:#25322a;fill-opacity:1;stroke:#000000;stroke-width:0.554425;stroke-opacity:1;paint-order:fill markers stroke"
           x="92.656143"
           y="134.29276"
           id="text17558"><tspan
             sodipodi:role="line"
             id="tspan17556"
             style="font-size:106.45px;fill:#ffffff;fill-opacity:1;stroke:#000000;stroke-width:0.554425;stroke-opacity:1"
             x="0"
             y="0">S</tspan></text>
        <g
           id="g18417"
           style="display:inline">
          <path
             style="opacity:1;fill:#6824e5;fill-opacity:1;stroke:none;stroke-width:1.6513;stroke-dasharray:none;stroke-opacity:1;paint-order:fill markers stroke"
             d="m 82.277148,119.24337 -7.050215,5.91695 a 20.550451,20.550451 0 0 0 11.74812,6.11901 l 0.802018,-9.17205 a 11.383106,11.383106 0 0 1 -5.499923,-2.86391 z"
             id="path18432" />
          <path
             style="opacity:1;fill:#1db954;fill-opacity:1;stroke:none;stroke-width:1.6513;stroke-dasharray:none;stroke-opacity:1;paint-order:fill markers stroke"
             d="m 83.496712,91.515861 a 20.550451,20.550451 0 0 0 -13.968656,19.453589 20.550451,20.550451 0 0 0 4.001823,12.1605 l 7.040914,-5.90816 a 11.383106,11.383106 0 0 1 -1.875338,-6.25234 11.383106,11.383106 0 0 1 7.180957,-10.57144 z"
             id="path18429" />
          <path
             style="opacity:1;fill:#ed6b25;fill-opacity:1;stroke:none;stroke-width:1.6513;stroke-dasharray:none;stroke-opacity:1;paint-order:fill markers stroke"
             d="m 90.078739,90.419287 a 20.550451,20.550451 0 0 0 -4.027144,0.411861 l 2.381767,8.888863 a 11.383106,11.383106 0 0 1 1.645377,-0.133325 11.383106,11.383106 0 0 1 11.383281,11.382764 11.383106,11.383106 0 0 1 -11.050484,11.3776 l -0.801502,9.15552 a 20.550451,20.550451 0 0 0 0.468705,0.0176 20.550451,20.550451 0 0 0 20.550681,-20.55069 20.550451,20.550451 0 0 0 -20.550681,-20.550163 z"
             id="path18426" />
        </g>
        <circle
           style="opacity:1;fill:#ffffff;fill-opacity:1;stroke:none;stroke-width:1.32292;stroke-dasharray:none;stroke-opacity:1;paint-order:fill markers stroke"
           id="path17859"
           cx="90.078735"
           cy="110.96971"
           r="5.7997489" />
        <path
           id="text18442"
           style="font-size:106.45px;line-height:1;font-family:'KG Beneath Your Beautiful Chunk';-inkscape-font-specification:'KG Beneath Your Beautiful Chunk';text-align:center;text-anchor:middle;display:none;opacity:1;fill:#ffffff;fill-opacity:1;stroke:none;stroke-width:0.554425;stroke-opacity:1;paint-order:fill markers stroke"
           d="m 93.161239,50.37522 c -0.336771,0 -0.678227,0.0085 -1.024744,0.02584 -2.425616,0.0693 -4.816893,0.623915 -7.173206,1.663464 -2.356312,1.03955 -4.504591,2.45987 -6.445084,4.261756 -1.87119,1.732583 -3.395725,3.777163 -4.573881,6.133475 -1.178157,2.356313 -1.767334,4.920422 -1.767334,7.692554 0,2.910739 0.589177,5.475365 1.767334,7.693071 1.247459,2.148402 2.771995,4.054201 4.573881,5.71748 1.871189,1.593976 3.881203,3.014296 6.029606,4.261755 2.217706,1.24746 4.331419,2.425815 6.341215,3.534668 2.910739,1.593977 5.371149,3.083946 7.380945,4.470012 2.009799,1.386066 3.707679,2.772336 5.093749,4.158402 1.80188,1.801883 3.08394,3.742253 3.84627,5.821353 0.62646,1.65157 1.5389,5.16068 1.19785,9.9999 -0.51475,7.3039 -6.97928,15.71119 -18.329101,15.71119 -5.115907,0 -9.687249,-2.10229 -13.284115,-4.88203 0.192081,0.23323 0.384356,0.46633 0.583427,0.69194 2.079099,2.28701 4.327978,4.57199 6.961504,5.81945 2.633526,1.24746 5.30185,1.80155 8.004679,1.66294 3.326559,-0.20791 6.376146,-0.96992 9.148276,-2.28668 2.77214,-1.38607 5.12833,-3.11903 7.06882,-5.19813 2.0098,-2.0791 3.5689,-4.43529 4.67775,-7.06882 1.10886,-2.63353 1.66347,-5.40555 1.66347,-8.31629 0,-2.70283 -0.52005,-5.40572 -1.5596,-8.10855 -1.03955,-2.77213 -2.66778,-5.440453 -4.88549,-8.004675 -1.59397,-1.732583 -3.67312,-3.430467 -6.23734,-5.093746 -2.494922,-1.732585 -5.613642,-3.672949 -9.321291,-5.83864 -3.707649,-2.165691 -5.232701,-2.997349 -6.688071,-3.828989 -1.386066,-0.900943 -2.633554,-1.871384 -3.742407,-2.910934 -1.108853,-1.108853 -2.009644,-2.35634 -2.702677,-3.742407 -0.62373,-1.386066 -0.935344,-3.014817 -0.935344,-4.886006 0,-1.732583 0.41583,-3.360817 1.247469,-4.88549 0.900944,-1.593977 2.009649,-2.980246 3.326412,-4.158403 1.386067,-1.178156 2.910602,-2.078947 4.573881,-2.702677 1.66328,-0.693033 3.292031,-1.03973 4.886007,-1.03973 1.178156,0 2.356512,0.207915 3.534668,0.623734 1.178156,0.346517 2.217213,0.935695 3.118156,1.767334 0.970247,0.762337 1.732777,1.80191 2.287197,3.118673 0.62373,1.24746 0.90078,2.806561 0.83148,4.677751 0,0.485123 0.34669,0.866386 1.03973,1.143599 0.69303,0.20791 1.45555,0.346692 2.28719,0.415996 0.83164,0 1.59365,-0.06965 2.28669,-0.208256 0.69303,-0.20791 1.03973,-0.519524 1.03973,-0.935344 0,-2.148403 -0.38127,-4.262115 -1.1436,-6.341215 -0.69304,-2.148403 -1.76718,-4.019635 -3.22255,-5.613611 -1.45537,-1.593976 -3.25746,-2.841464 -5.405867,-3.742407 -1.879852,-0.848966 -3.998289,-1.273307 -6.355684,-1.273307 z"
           sodipodi:nodetypes="scscssccccsscssccscccsscccccccscccscccccccscscs" />
        <path
           id="path20740"
           style="font-size:106.45px;line-height:1;font-family:'KG Beneath Your Beautiful Chunk';-inkscape-font-specification:'KG Beneath Your Beautiful Chunk';text-align:center;text-anchor:middle;display:inline;opacity:1;fill:#ffffff;fill-opacity:1;stroke:none;stroke-width:0.554425;stroke-opacity:1;paint-order:fill markers stroke;filter:url(#filter20776)"
           d="m 93.161239,50.37522 c -0.336771,0 -0.678227,0.0085 -1.024744,0.02584 -2.425616,0.0693 -4.816893,0.623915 -7.173206,1.663464 -2.356312,1.03955 -4.504591,2.45987 -6.445084,4.261756 -1.87119,1.732583 -3.395725,3.777163 -4.573881,6.133475 -1.178157,2.356313 -1.767334,4.920422 -1.767334,7.692554 0,2.910739 0.589177,5.475365 1.767334,7.693071 1.247459,2.148402 2.771995,4.054201 4.573881,5.71748 1.871189,1.593976 3.881203,3.014296 6.029606,4.261755 2.217706,1.24746 4.331419,2.425815 6.341215,3.534668 2.910739,1.593977 5.371149,3.083946 7.380945,4.470012 2.009799,1.386066 3.707679,2.772336 5.093749,4.158402 1.80188,1.801883 3.08394,3.742253 3.84627,5.821353 0.62646,1.65157 1.5389,5.16068 1.19785,9.9999 -0.51475,7.3039 -6.97928,15.71119 -18.329101,15.71119 -5.115907,0 -9.687249,-2.10229 -13.284115,-4.88203 0.192081,0.23323 0.384356,0.46633 0.583427,0.69194 2.079099,2.28701 4.327978,4.57199 6.961504,5.81945 2.633526,1.24746 5.30185,1.80155 8.004679,1.66294 3.326559,-0.20791 6.376146,-0.96992 9.148276,-2.28668 2.77214,-1.38607 5.12833,-3.11903 7.06882,-5.19813 2.0098,-2.0791 3.5689,-4.43529 4.67775,-7.06882 1.10886,-2.63353 1.66347,-5.40555 1.66347,-8.31629 0,-2.70283 -0.52005,-5.40572 -1.5596,-8.10855 -1.03955,-2.77213 -2.66778,-5.440453 -4.88549,-8.004675 -1.59397,-1.732583 -3.67312,-3.430467 -6.23734,-5.093746 -2.494922,-1.732585 -5.613642,-3.672949 -9.321291,-5.83864 -3.707649,-2.165691 -5.232701,-2.997349 -6.688071,-3.828989 -1.386066,-0.900943 -2.633554,-1.871384 -3.742407,-2.910934 -1.108853,-1.108853 -2.009644,-2.35634 -2.702677,-3.742407 -0.62373,-1.386066 -0.935344,-3.014817 -0.935344,-4.886006 0,-1.732583 0.41583,-3.360817 1.247469,-4.88549 0.900944,-1.593977 2.009649,-2.980246 3.326412,-4.158403 1.386067,-1.178156 2.910602,-2.078947 4.573881,-2.702677 1.66328,-0.693033 3.292031,-1.03973 4.886007,-1.03973 1.178156,0 2.356512,0.207915 3.534668,0.623734 1.178156,0.346517 2.217213,0.935695 3.118156,1.767334 0.970247,0.762337 1.732777,1.80191 2.287197,3.118673 0.62373,1.24746 0.90078,2.806561 0.83148,4.677751 0,0.485123 0.34669,0.866386 1.03973,1.143599 0.69303,0.20791 1.45555,0.346692 2.28719,0.415996 0.83164,0 1.59365,-0.06965 2.28669,-0.208256 0.69303,-0.20791 1.03973,-0.519524 1.03973,-0.935344 0,-2.148403 -0.38127,-4.262115 -1.1436,-6.341215 -0.69304,-2.148403 -1.76718,-4.019635 -3.22255,-5.613611 -1.45537,-1.593976 -3.25746,-2.841464 -5.405867,-3.742407 -1.879852,-0.848966 -3.998289,-1.273307 -6.355684,-1.273307 z"
           sodipodi:nodetypes="scscssccccsscssccscccsscccccccscccscccccccscscs" />
      </g>
      <g
         id="g18568">
        <path
           style="display:inline;fill:#6824e5;fill-opacity:1;stroke:none;stroke-width:5.29167;stroke-linecap:square;stroke-linejoin:round;stroke-dasharray:none;paint-order:fill markers stroke"
           d="m 119.32502,43.127083 -1.82005,3.902604 c 10.96593,4.690158 19.33071,14.183449 22.48545,25.886792 H 144.447 C 141.18907,59.493989 131.76,48.516652 119.32502,43.127083 Z"
           id="path3430" />
        <path
           style="display:inline;fill:#ed6b25;fill-opacity:1;stroke:none;stroke-width:5.29167;stroke-linecap:square;stroke-linejoin:round;stroke-dasharray:none;paint-order:fill markers stroke"
           d="M 65.883317,43.126567 C 53.448199,48.515918 44.019594,59.493512 40.761853,72.916479 h 4.456576 C 48.372961,61.212759 56.737428,51.719161 67.703361,47.029171 Z"
           id="path3428" />
        <path
           style="display:inline;fill:#1db954;fill-opacity:1;stroke:none;stroke-width:5.29167;stroke-linecap:square;stroke-linejoin:round;stroke-dasharray:none;paint-order:fill markers stroke"
           d="m 83.316361,39.521619 c -3.855013,0 -7.591772,0.496713 -11.15074,1.427819 l 1.861385,3.992005 c 2.976947,-0.710432 6.085158,-1.09399 9.289355,-1.09399 h 18.574059 c 3.20477,0 6.31339,0.383829 9.29091,1.094507 l 1.8619,-3.992522 c -3.55965,-0.931436 -7.2971,-1.427819 -11.15281,-1.427819 z"
           id="rect3195" />
      </g>
    </g>
  </g>
</svg>
